<?xml version="1.0" standalone="no"?>
<!DOCTYPE svg PUBLIC "-//W3C//DTD SVG 20010904//EN"
 "http://www.w3.org/TR/2001/REC-SVG-20010904/DTD/svg10.dtd">
<svg version="1.0" xmlns="http://www.w3.org/2000/svg"
 width="435.000000pt" height="435.000000pt" viewBox="0 0 435.000000 435.000000"
 preserveAspectRatio="xMidYMid meet">
<metadata>
Created by potrace 1.14, written by Peter Selinger 2001-2017
</metadata>
<g transform="translate(0.000000,435.000000) scale(0.100000,-0.100000)"
fill="#000000" stroke="none">
<path d="M2586 4124 c-3 -8 -10 -13 -15 -9 -6 3 -15 -3 -21 -14 -6 -13 -16
-18 -26 -14 -10 4 -25 -4 -40 -22 -13 -16 -24 -25 -24 -21 0 4 -20 -5 -43 -19
-24 -14 -47 -22 -52 -17 -4 4 -5 1 -1 -6 5 -8 -3 -16 -23 -23 -17 -6 -31 -15
-31 -21 0 -6 -7 -7 -16 -4 -8 3 -12 2 -9 -4 3 -6 1 -10 -5 -10 -6 0 -9 -4 -6
-8 2 -4 -4 -8 -14 -9 -11 -1 -29 -11 -41 -22 -12 -11 -28 -17 -37 -14 -10 4
-13 2 -8 -5 4 -7 1 -12 -6 -13 -7 0 -21 -2 -30 -4 -10 -2 -18 1 -18 6 0 6 -5
7 -10 4 -12 -7 -62 29 -53 39 6 6 -29 10 -57 6 -8 -1 -12 2 -7 6 9 9 -42 44
-57 38 -6 -2 -24 7 -40 21 -32 28 -41 31 -30 13 6 -9 3 -9 -9 0 -9 8 -22 10
-28 6 -7 -4 -10 -3 -7 2 3 5 0 15 -8 22 -8 7 -14 10 -14 7 0 -4 -7 1 -16 10
-14 13 -19 14 -25 3 -7 -10 -9 -9 -9 5 0 10 -4 15 -10 12 -5 -3 -10 -1 -10 4
0 6 -9 11 -20 11 -11 0 -20 5 -20 12 0 6 -3 8 -7 5 -3 -4 -15 1 -26 10 -15 13
-19 14 -13 3 4 -9 2 -8 -7 3 -16 20 -32 23 -21 5 5 -9 2 -9 -9 1 -15 12 -17
11 -17 -13 0 -17 5 -26 16 -26 9 0 18 -9 21 -20 3 -11 9 -18 13 -15 10 6 79
-72 71 -80 -3 -4 -1 -6 4 -5 18 4 38 0 32 -6 -10 -10 17 -32 32 -26 9 3 12 1
7 -6 -9 -15 18 -55 29 -44 4 4 5 -1 2 -11 -4 -11 -3 -16 3 -12 6 3 10 1 10 -4
0 -6 7 -11 15 -11 9 0 12 -6 8 -17 -4 -11 -3 -14 6 -9 8 5 14 0 18 -14 4 -15
8 -18 13 -10 5 9 10 6 15 -9 3 -11 13 -21 22 -21 9 0 13 -6 9 -15 -3 -8 -2
-14 2 -14 18 3 32 -2 32 -12 0 -13 20 -33 43 -42 9 -3 17 -14 17 -22 0 -9 5
-13 10 -10 6 3 13 -1 16 -9 3 -9 14 -16 23 -16 14 0 14 -2 1 -10 -13 -8 -13
-10 2 -10 9 0 20 -5 24 -12 5 -7 3 -8 -6 -3 -9 5 -11 4 -6 -4 6 -9 11 -9 24 1
10 8 13 9 9 1 -4 -6 -2 -15 5 -19 12 -8 60 -13 53 -5 -2 2 1 13 7 25 7 11 11
24 10 29 -1 4 1 6 5 5 12 -3 103 84 103 99 0 7 7 13 15 13 9 0 12 6 8 17 -4
10 -2 14 4 10 15 -9 55 42 48 60 -3 9 0 11 7 7 7 -5 9 -2 5 9 -4 11 -2 14 8
10 8 -3 18 2 21 11 3 9 10 13 15 10 5 -3 9 2 9 10 0 9 5 16 11 16 5 0 7 5 3
12 -5 7 -2 9 9 5 11 -4 14 -2 10 9 -3 9 0 14 8 12 8 -2 13 3 12 10 -3 11 9 16
28 14 4 -1 5 6 3 16 -5 19 36 72 55 72 7 0 9 5 6 10 -3 6 -1 10 5 10 7 0 9 7
6 16 -6 15 -4 15 11 3 10 -7 15 -9 11 -5 -4 5 -3 15 3 23 6 7 8 13 4 13 -4 0
-2 7 5 15 11 13 8 15 -18 15 -18 0 -32 -6 -36 -16z m-286 -417 c0 -2 -10 -12
-22 -23 l-23 -19 19 23 c18 21 26 27 26 19z"/>
<path d="M2140 3311 c0 -5 -13 -7 -30 -5 -16 2 -30 0 -30 -5 0 -4 -13 -7 -30
-6 -16 1 -27 -2 -24 -7 3 -4 1 -8 -5 -8 -5 0 -13 5 -16 10 -4 7 -13 7 -25 0
-11 -6 -23 -10 -27 -9 -22 4 -44 -2 -38 -10 3 -6 -6 -8 -21 -5 -19 3 -24 1
-18 -8 6 -10 4 -10 -8 0 -14 11 -18 10 -26 -5 -6 -10 -12 -17 -14 -15 -7 7
-38 -11 -33 -19 3 -4 -4 -6 -15 -4 -11 2 -18 0 -15 -6 4 -5 2 -9 -4 -9 -6 0
-27 -11 -47 -25 -20 -14 -40 -22 -45 -19 -5 3 -6 -3 -2 -13 6 -16 5 -17 -12
-3 -13 11 -16 11 -11 2 6 -10 -3 -23 -28 -43 -19 -17 -35 -33 -33 -37 3 -12
-50 -62 -58 -54 -4 4 -5 3 -4 -3 5 -19 -12 -55 -23 -49 -7 5 -9 1 -5 -9 3 -9
-1 -18 -10 -21 -8 -4 -13 -13 -9 -21 3 -8 1 -15 -5 -15 -6 0 -7 -4 -4 -10 3
-5 1 -10 -5 -10 -7 0 -10 -7 -6 -15 3 -8 1 -15 -5 -15 -6 0 -9 -6 -6 -12 2 -7
-3 -19 -12 -26 -13 -11 -13 -12 -1 -6 12 6 12 4 -1 -12 -22 -27 -30 -52 -18
-60 7 -4 6 -10 0 -18 -6 -7 -8 -16 -4 -19 3 -4 1 -7 -5 -7 -7 0 -12 -11 -12
-25 0 -14 6 -25 13 -25 8 0 8 -3 1 -8 -13 -9 -13 -124 1 -134 7 -5 7 -8 0 -8
-6 0 -10 -13 -10 -30 -1 -16 2 -30 5 -30 3 0 5 -13 4 -30 -1 -20 3 -30 12 -30
14 0 16 -9 17 -57 0 -13 4 -23 9 -23 5 0 6 -4 3 -10 -3 -5 -2 -10 3 -10 6 0 9
-13 8 -29 -1 -20 3 -28 14 -27 8 1 16 -9 18 -21 2 -13 8 -23 13 -23 5 0 9 -9
9 -20 0 -11 7 -20 16 -20 8 0 12 -4 9 -10 -3 -5 -1 -10 5 -10 7 0 10 -7 7 -15
-4 -8 -1 -17 5 -21 7 -5 8 -2 3 7 -5 8 9 -4 32 -26 22 -22 39 -43 36 -47 -2
-4 2 -10 8 -14 8 -4 9 -3 5 4 -11 18 3 14 26 -8 12 -11 28 -20 35 -20 8 0 11
-4 8 -10 -3 -5 1 -10 10 -10 10 0 13 -5 9 -12 -5 -7 -2 -9 9 -5 11 4 14 2 10
-9 -3 -7 0 -14 7 -14 6 0 8 -5 4 -12 -4 -7 -3 -8 5 -4 6 4 14 0 17 -8 3 -9 10
-16 16 -16 5 0 6 5 2 12 -4 7 -3 8 4 4 7 -4 12 -15 13 -24 0 -10 3 -12 6 -5 3
10 7 10 18 0 7 -7 11 -15 8 -19 -2 -5 3 -8 12 -8 8 0 18 -7 21 -15 4 -8 10
-12 15 -9 5 3 9 0 9 -6 0 -6 11 -16 25 -22 14 -6 25 -18 25 -26 0 -9 3 -13 6
-9 9 9 44 -25 37 -36 -4 -6 0 -8 9 -5 16 7 72 -35 61 -46 -3 -3 -1 -6 6 -6 7
0 25 -13 41 -30 15 -16 33 -30 41 -32 20 -5 38 -22 31 -32 -3 -5 0 -6 6 -2 6
3 14 1 17 -5 4 -5 14 -8 22 -5 8 3 11 1 8 -4 -3 -6 -1 -10 4 -10 6 0 11 -7 11
-16 0 -8 4 -13 8 -10 4 2 23 -13 41 -35 19 -21 40 -39 48 -39 8 0 11 -5 7 -12
-4 -6 -3 -8 4 -4 6 3 13 2 17 -4 4 -6 11 -7 17 -4 6 4 8 3 5 -3 -3 -5 3 -15
13 -23 10 -8 16 -18 13 -23 -3 -6 -1 -7 5 -3 6 4 26 -8 43 -26 18 -18 28 -26
24 -18 -8 13 -7 13 10 0 41 -33 93 -89 87 -94 -3 -3 1 -6 8 -6 7 0 23 -11 35
-24 13 -14 26 -22 29 -19 3 4 6 -1 6 -11 0 -9 5 -14 10 -11 9 5 12 -8 9 -31 0
-4 4 -10 11 -14 6 -4 12 -16 13 -28 0 -11 5 -18 9 -16 4 3 8 -1 8 -10 0 -8 4
-16 10 -18 5 -2 11 -55 12 -123 1 -72 6 -123 12 -127 7 -5 7 -8 -2 -8 -8 0
-11 -10 -7 -31 4 -22 2 -28 -6 -23 -9 5 -10 0 -6 -15 3 -14 0 -24 -9 -28 -8
-3 -11 -9 -8 -14 3 -5 0 -9 -6 -9 -6 0 -8 -4 -5 -10 3 -5 1 -10 -4 -10 -6 0
-11 -5 -11 -11 0 -5 6 -7 13 -3 7 4 9 3 4 -2 -5 -5 -14 -9 -20 -9 -7 0 -11 -8
-9 -17 1 -10 -6 -23 -18 -30 -11 -7 -20 -19 -20 -26 0 -9 -6 -12 -15 -8 -9 3
-15 0 -15 -8 0 -20 -46 -69 -58 -62 -7 4 -9 -1 -7 -14 3 -18 -1 -22 -21 -19
-3 0 -14 -10 -25 -22 -10 -12 -19 -17 -19 -10 0 7 -5 9 -10 6 -6 -4 -8 -10 -5
-15 3 -5 0 -12 -6 -16 -8 -4 -9 -3 -5 4 4 7 2 12 -3 12 -6 0 -11 -5 -11 -12 0
-6 -3 -8 -7 -5 -3 4 -12 -1 -20 -11 -8 -9 -12 -11 -8 -4 3 6 1 12 -4 12 -6 0
-11 -8 -11 -17 0 -9 -3 -14 -6 -11 -3 4 -18 3 -34 -2 -18 -5 -32 -4 -39 3 -8
8 -11 8 -11 -1 0 -6 -7 -9 -17 -5 -10 4 -14 2 -10 -4 4 -7 -18 -11 -61 -12
-37 -2 -94 -4 -127 -6 -71 -3 -98 2 -89 18 5 8 3 8 -6 0 -10 -9 -17 -10 -27
-2 -10 9 -13 8 -13 -1 0 -9 -4 -9 -17 1 -14 12 -15 12 -9 1 7 -11 4 -12 -13
-3 -11 7 -21 14 -21 17 0 3 5 2 12 -2 7 -4 8 -3 4 5 -6 8 -12 9 -20 2 -9 -8
-19 -5 -34 9 -12 11 -28 20 -37 20 -8 0 -15 5 -15 11 0 6 -9 9 -19 6 -14 -3
-18 -1 -14 9 3 8 -1 14 -10 14 -8 0 -18 6 -20 12 -4 10 -6 10 -6 0 -1 -7 -33
20 -73 60 -40 40 -75 72 -79 71 -4 -2 -6 6 -4 17 2 12 -6 30 -19 43 -12 12
-20 29 -18 36 3 8 0 11 -5 8 -5 -3 -9 2 -10 11 -2 29 -9 50 -19 63 -16 20 -30
70 -29 101 0 15 -3 24 -7 22 -9 -6 -11 12 -10 102 0 63 0 62 -37 55 -2 -1 2
-8 9 -16 11 -13 10 -14 -2 -10 -9 4 -14 -2 -15 -17 0 -13 -4 -31 -8 -40 -5
-12 -3 -18 6 -18 8 0 5 -6 -7 -16 -10 -8 -12 -13 -4 -9 8 4 6 -1 -5 -10 -16
-12 -19 -26 -17 -61 1 -25 -1 -43 -6 -40 -13 8 -11 -108 2 -116 8 -6 8 -8 -1
-8 -13 0 -11 -120 3 -142 4 -7 3 -8 -4 -4 -7 4 -12 3 -12 -3 0 -5 5 -13 10
-16 7 -4 7 -13 0 -26 -7 -13 -7 -19 0 -19 5 0 10 -9 10 -20 0 -11 5 -20 10
-20 6 0 10 -7 10 -15 0 -8 3 -14 8 -13 4 2 19 -8 32 -21 14 -13 18 -20 10 -16
-13 8 -13 7 -1 -8 15 -19 26 -23 15 -6 -4 7 -1 10 7 7 8 -3 13 -11 11 -18 -2
-8 5 -9 19 -5 13 5 19 3 15 -3 -6 -9 17 -25 39 -27 6 0 16 -4 23 -8 6 -5 12
-5 12 0 0 4 4 2 8 -4 5 -7 20 -14 35 -15 15 -1 27 -6 27 -10 0 -4 14 -8 30 -8
17 0 30 -4 30 -8 0 -5 15 -9 33 -10 54 -2 67 -5 67 -15 0 -5 7 -4 15 3 11 9
15 9 15 1 0 -8 5 -9 17 -3 11 7 21 5 31 -4 17 -18 46 -19 36 -1 -4 6 2 4 13
-6 21 -18 63 -31 63 -19 0 4 77 7 170 7 94 -1 170 3 170 8 0 4 5 5 10 2 6 -3
10 -3 10 2 0 4 17 8 37 7 21 0 40 3 43 8 3 4 15 9 25 11 11 1 35 10 53 19 19
10 30 12 26 5 -5 -8 -3 -8 7 0 7 7 21 13 32 13 10 0 15 4 12 10 -4 6 5 10 19
10 14 0 26 5 26 11 0 5 4 8 9 5 5 -3 14 1 21 9 7 8 16 12 21 9 5 -3 8 -2 7 3
-2 4 0 8 3 8 3 0 13 8 23 18 10 9 24 17 32 17 8 0 14 5 14 11 0 6 7 9 14 6 10
-4 13 -1 9 8 -3 8 2 18 11 21 9 3 13 10 10 15 -3 5 1 9 9 9 8 0 21 8 28 18 13
16 13 16 -6 2 -18 -14 -19 -14 -7 2 8 10 22 20 33 23 11 4 17 10 14 15 -2 4 8
20 23 36 15 15 20 24 12 20 -8 -4 -6 0 5 9 11 9 19 21 17 26 -1 5 2 9 8 9 6 0
9 3 9 8 -4 22 2 42 11 37 6 -3 10 1 10 10 0 9 4 14 9 11 5 -4 8 2 6 11 -1 10
3 24 9 32 9 12 8 13 -4 7 -9 -4 -8 -2 2 7 10 8 15 17 11 20 -3 4 -1 7 5 7 6 0
9 11 6 26 -3 18 -1 23 7 18 9 -5 10 -1 7 14 -4 12 -2 24 2 27 5 3 5 18 1 33
-8 30 -4 62 8 62 10 0 2 253 -8 260 -7 4 -12 44 -12 93 0 9 -4 15 -10 12 -9
-6 -13 6 -10 36 1 9 -5 22 -14 29 -8 7 -12 16 -9 21 3 5 0 9 -6 9 -7 0 -9 9
-5 23 5 17 4 19 -4 7 -10 -14 -11 -13 -11 15 0 10 -35 42 -43 38 -4 -3 -7 -1
-6 4 3 19 -2 43 -8 42 -19 -3 -33 2 -33 12 0 5 5 7 12 3 7 -4 8 -3 4 4 -4 7
-14 12 -22 12 -8 0 -14 5 -14 11 0 5 -4 7 -10 4 -6 -3 -7 1 -4 9 4 12 0 16
-16 16 -16 0 -20 4 -16 16 3 8 2 13 -2 10 -5 -3 -15 4 -22 15 -16 21 -36 27
-24 7 4 -7 -6 2 -23 20 -16 17 -35 32 -42 32 -7 0 -11 7 -8 15 4 8 1 17 -5 21
-7 4 -8 3 -4 -4 11 -18 -10 -14 -25 5 -12 14 -12 16 0 8 10 -5 12 -4 7 3 -4 7
-14 12 -22 12 -9 0 -12 5 -8 12 5 8 2 9 -10 5 -10 -4 -19 -1 -22 8 -4 8 -10
12 -15 9 -5 -3 -9 -1 -9 4 0 6 -11 13 -25 16 -14 4 -23 11 -20 16 3 6 1 10 -4
10 -6 0 -30 19 -53 43 -24 23 -55 49 -70 56 -16 8 -28 18 -28 23 0 5 -5 6 -12
2 -6 -4 -8 -3 -5 3 8 13 -29 48 -51 48 -10 0 -16 6 -15 13 2 6 -1 12 -5 12 -5
0 -18 9 -30 21 -13 11 -31 21 -42 22 -10 1 -16 5 -14 9 3 4 0 8 -6 8 -6 0 -8
5 -4 12 5 8 2 9 -9 5 -10 -4 -16 -2 -14 6 1 7 -4 11 -11 9 -8 -1 -11 2 -8 7 3
5 -2 15 -11 22 -14 12 -16 12 -8 0 5 -10 4 -12 -3 -7 -7 4 -12 13 -12 21 0 8
-7 11 -20 8 -14 -4 -20 0 -20 10 0 9 -9 19 -20 22 -11 3 -20 13 -20 21 0 13
-12 18 -32 15 -4 0 -5 5 -2 13 3 8 0 17 -7 22 -8 5 -10 3 -4 -7 5 -8 -2 -5
-14 6 -13 11 -25 18 -26 15 -2 -3 -7 -1 -12 4 -5 5 -2 6 6 1 9 -5 12 -4 7 3
-4 7 -13 12 -21 12 -8 0 -17 5 -21 12 -5 7 -2 8 7 3 8 -5 11 -5 7 0 -4 4 -18
13 -30 19 -12 6 -28 23 -35 36 -7 14 -13 22 -13 18 0 -16 -70 58 -70 74 0 10
-4 18 -10 18 -5 0 -9 3 -7 8 1 4 -8 17 -19 28 -14 14 -20 31 -19 48 2 14 -1
24 -6 20 -5 -3 -9 6 -9 19 0 14 -7 30 -15 37 -11 9 -12 17 -5 30 7 13 7 21 0
25 -7 4 -7 13 0 26 6 11 7 19 2 19 -15 0 -6 60 12 81 8 10 11 19 6 19 -5 0 -1
16 10 35 11 19 16 35 11 35 -5 0 7 17 28 38 20 20 42 49 49 65 6 15 16 27 22
27 6 0 8 5 4 12 -4 6 -3 8 4 4 6 -3 13 -2 17 4 4 6 11 8 16 5 5 -3 6 1 3 10
-4 9 -2 15 3 13 6 -2 20 8 32 22 18 21 20 22 15 5 -6 -17 -4 -17 11 3 9 13 23
21 31 18 7 -3 16 0 20 6 5 7 2 8 -7 3 -11 -6 -11 -5 -3 4 7 7 20 11 30 9 11
-2 25 3 32 12 11 13 12 13 6 0 -7 -13 -5 -13 9 -2 9 8 22 10 28 6 8 -4 9 -3 5
4 -8 14 -5 14 89 16 39 1 75 5 81 8 6 4 14 5 17 1 9 -8 81 -8 95 1 7 4 12 2
12 -4 0 -7 7 -10 15 -6 8 3 15 1 15 -5 0 -6 7 -8 16 -5 8 3 13 2 10 -3 -3 -5
1 -12 10 -15 10 -4 13 -2 7 7 -4 6 5 4 20 -6 15 -10 32 -15 37 -12 6 4 13 -1
16 -9 3 -9 10 -14 14 -11 5 3 13 -3 19 -12 6 -10 11 -14 11 -10 0 4 6 2 14 -5
8 -7 12 -16 9 -20 -2 -5 2 -8 9 -8 7 0 28 -16 45 -35 18 -19 37 -35 43 -35 5
0 9 -6 8 -12 -2 -7 3 -12 10 -10 6 1 11 -1 10 -5 -1 -5 5 -22 15 -39 9 -17 13
-34 10 -38 -4 -3 0 -6 7 -6 7 0 10 -3 7 -7 -4 -3 1 -12 11 -20 9 -8 11 -12 5
-8 -22 11 -12 -81 10 -95 16 -9 21 -9 28 2 13 19 11 30 -3 22 -9 -5 -9 -2 1 9
9 12 10 17 2 17 -8 0 -9 5 -1 19 6 13 7 22 0 26 -6 4 -6 15 0 30 5 14 6 25 2
25 -4 0 -7 56 -6 124 0 85 -3 123 -10 118 -8 -4 -8 -2 0 9 5 8 9 20 8 27 -1 6
-2 35 -3 63 -1 30 -5 48 -11 44 -5 -3 -10 0 -10 7 0 8 -3 9 -8 3 -10 -14 -32
-17 -32 -4 0 8 -4 8 -12 2 -16 -13 -48 -13 -48 -1 0 5 -5 6 -12 2 -19 -12
-128 -12 -128 -1 0 6 -3 7 -7 4 -3 -4 -12 -2 -20 4 -7 6 -13 8 -13 3 0 -5 -40
-9 -89 -9 -52 0 -87 4 -83 9 3 5 -2 7 -11 3 -10 -3 -17 -3 -17 1 0 4 -9 8 -20
8 -11 0 -20 -4 -20 -9 0 -5 -7 -4 -15 3 -12 10 -15 10 -15 0 0 -10 -3 -10 -14
-1 -9 8 -16 8 -20 2 -4 -6 -18 -6 -36 -1 -17 5 -30 5 -30 1z m-510 -215 c0 -2
-8 -10 -17 -17 -16 -13 -17 -12 -4 4 13 16 21 21 21 13z m715 -1136 c3 -5 1
-10 -4 -10 -6 0 -11 5 -11 10 0 6 2 10 4 10 3 0 8 -4 11 -10z m-830 -1250 c3
-5 1 -10 -4 -10 -6 0 -11 5 -11 10 0 6 2 10 4 10 3 0 8 -4 11 -10z"/>
<path d="M1895 2330 c3 -5 8 -10 11 -10 2 0 4 5 4 10 0 6 -5 10 -11 10 -5 0
-7 -4 -4 -10z"/>
</g>
</svg>
